<svg xmlns="http://www.w3.org/2000/svg" xmlns:xlink="http://www.w3.org/1999/xlink" version="1.1" data-diagram-type="CLASS" style="width:839px;height:818px;background:#FFFFFF;" width="839px" height="818px" viewBox="0 0 839 818" zoomAndPan="magnify" preserveAspectRatio="none" contentStyleType="text/css"><?plantuml 1.2026.8?><defs/><g font-family="sans-serif" lengthAdjust="spacing"><!--class Bank--><g class="entity" data-qualified-name="Bank" id="ent0001" data-source-line="2"><rect x="169.02" y="7" width="242.084" height="113.953" fill="#F1F1F1" style="stroke:#181818;stroke-width:0.5;" rx="2.5" ry="2.5"/><ellipse cx="269.484" cy="23" rx="11" ry="11" fill="#ADD1B2" style="stroke:#181818;stroke-width:1;"/><path d="M271.958,29.143 Q271.376,29.442 270.737,29.591 Q270.098,29.741 269.393,29.741 Q266.886,29.741 265.566,28.089 Q264.246,26.437 264.246,23.316 Q264.246,20.187 265.566,18.535 Q266.886,16.883 269.393,16.883 Q270.098,16.883 270.746,17.032 Q271.393,17.182 271.958,17.48 L271.958,20.203 Q271.327,19.622 270.733,19.352 Q270.14,19.083 269.509,19.083 Q268.164,19.083 267.479,20.149 Q266.794,21.216 266.794,23.316 Q266.794,25.408 267.479,26.474 Q268.164,27.541 269.509,27.541 Q270.14,27.541 270.733,27.271 Q271.327,27.001 271.958,26.42 Z " fill="#000"/><text x="289.984" y="28.291" fill="#000" font-size="14" textLength="32.655">Bank</text><line x1="170.02" y1="39" x2="410.104" y2="39" style="stroke:#181818;stroke-width:0.5;"/><line x1="170.02" y1="47" x2="410.104" y2="47" style="stroke:#181818;stroke-width:0.5;"/><g data-visibility-modifier="PUBLIC_METHOD"><ellipse cx="180.02" cy="60.744" rx="3" ry="3" fill="#84BE84" style="stroke:#038048;stroke-width:1;"/></g><text x="189.02" y="64.535" fill="#000" font-size="14" textLength="216.084">sucheKonto(iban: String): Konto</text><g data-visibility-modifier="PUBLIC_METHOD"><ellipse cx="180.02" cy="77.232" rx="3" ry="3" fill="#84BE84" style="stroke:#038048;stroke-width:1;"/></g><text x="189.02" y="81.023" fill="#000" font-size="14" textLength="200.847">kundeAnlegen(kunde: Kunde)</text><g data-visibility-modifier="PUBLIC_METHOD"><ellipse cx="180.02" cy="93.721" rx="3" ry="3" fill="#84BE84" style="stroke:#038048;stroke-width:1;"/></g><text x="189.02" y="97.512" fill="#000" font-size="14" textLength="192.254">kontoAnlegen(konto: Konto)</text><g data-visibility-modifier="PUBLIC_METHOD"><ellipse cx="180.02" cy="110.209" rx="3" ry="3" fill="#84BE84" style="stroke:#038048;stroke-width:1;"/></g><text x="189.02" y="114" fill="#000" font-size="14" textLength="141.771" text-decoration="underline">erzeugeIban(): String</text></g><!--class Kunde--><g class="entity" data-qualified-name="Kunde" id="ent0002" data-source-line="9"><rect x="145.43" y="197.95" width="145.26" height="97.465" fill="#F1F1F1" style="stroke:#181818;stroke-width:0.5;" rx="2.5" ry="2.5"/><ellipse cx="192.246" cy="213.95" rx="11" ry="11" fill="#ADD1B2" style="stroke:#181818;stroke-width:1;"/><path d="M194.719,220.093 Q194.138,220.392 193.499,220.541 Q192.86,220.691 192.154,220.691 Q189.647,220.691 188.327,219.039 Q187.008,217.387 187.008,214.266 Q187.008,211.137 188.327,209.485 Q189.647,207.833 192.154,207.833 Q192.86,207.833 193.507,207.982 Q194.155,208.132 194.719,208.43 L194.719,211.153 Q194.088,210.572 193.495,210.302 Q192.901,210.033 192.27,210.033 Q190.926,210.033 190.241,211.099 Q189.556,212.166 189.556,214.266 Q189.556,216.358 190.241,217.424 Q190.926,218.491 192.27,218.491 Q192.901,218.491 193.495,218.221 Q194.088,217.951 194.719,217.37 Z " fill="#000"/><text x="212.746" y="219.241" fill="#000" font-size="14" textLength="43.128">Kunde</text><line x1="146.43" y1="229.95" x2="289.69" y2="229.95" style="stroke:#181818;stroke-width:0.5;"/><g data-visibility-modifier="PRIVATE_FIELD"><rect x="153.43" y="240.694" width="6" height="6" fill="none" style="stroke:#C82930;stroke-width:1;"/></g><text x="165.43" y="247.485" fill="#000" font-size="14" textLength="99.825">nummer: UUID</text><g data-visibility-modifier="PRIVATE_FIELD"><rect x="153.43" y="257.182" width="6" height="6" fill="none" style="stroke:#C82930;stroke-width:1;"/></g><text x="165.43" y="263.973" fill="#000" font-size="14" textLength="86.119">name: String</text><g data-visibility-modifier="PRIVATE_FIELD"><rect x="153.43" y="273.671" width="6" height="6" fill="none" style="stroke:#C82930;stroke-width:1;"/></g><text x="165.43" y="280.462" fill="#000" font-size="14" textLength="119.26">wohnort: Adresse</text><line x1="146.43" y1="287.415" x2="289.69" y2="287.415" style="stroke:#181818;stroke-width:0.5;"/></g><!--class Konto--><g class="entity" data-qualified-name="Konto" id="ent0003" data-source-line="15"><rect x="205.72" y="372.42" width="310.683" height="130.441" fill="#F1F1F1" style="stroke:#181818;stroke-width:0.5;" rx="2.5" ry="2.5"/><ellipse cx="336.679" cy="388.42" rx="11" ry="11" fill="#A9DCDF" style="stroke:#181818;stroke-width:1;"/><path d="M336.543,383.768 L335.389,388.84 L337.705,388.84 Z M335.049,381.527 L338.045,381.527 L341.39,393.92 L338.942,393.92 L338.178,390.857 L334.899,390.857 L334.152,393.92 L331.703,393.92 Z " fill="#000"/><text x="357.179" y="393.711" fill="#000" font-size="14" textLength="40.264" font-style="italic">Konto</text><line x1="206.72" y1="404.42" x2="515.403" y2="404.42" style="stroke:#181818;stroke-width:0.5;"/><g data-visibility-modifier="PRIVATE_FIELD"><rect x="213.72" y="415.164" width="6" height="6" fill="none" style="stroke:#C82930;stroke-width:1;"/></g><text x="225.72" y="421.955" fill="#000" font-size="14" textLength="78.107">iban: String</text><g data-visibility-modifier="PRIVATE_FIELD"><rect x="213.72" y="431.652" width="6" height="6" fill="none" style="stroke:#C82930;stroke-width:1;"/></g><text x="225.72" y="438.443" fill="#000" font-size="14" textLength="76.528">stand: long</text><line x1="206.72" y1="445.397" x2="515.403" y2="445.397" style="stroke:#181818;stroke-width:1;"/><g data-visibility-modifier="PUBLIC_METHOD"><ellipse cx="216.72" cy="459.141" rx="3" ry="3" fill="#84BE84" style="stroke:#038048;stroke-width:1;"/></g><text x="225.72" y="462.932" fill="#000" font-size="14" textLength="157.582">einzahlen(betrag: long)</text><g data-visibility-modifier="PUBLIC_METHOD"><ellipse cx="216.72" cy="475.629" rx="3" ry="3" fill="#84BE84" style="stroke:#038048;stroke-width:1;"/></g><text x="225.72" y="479.42" fill="#000" font-size="14" textLength="150.397">abheben(betrag: long)</text><g data-visibility-modifier="PROTECTED_METHOD"><polygon points="216.72,487.117,220.72,491.117,216.72,495.117,212.72,491.117" fill="#FF4" style="stroke:#B38D22;stroke-width:1;stroke-linejoin:miter;stroke-miterlimit:10;"/></g><text x="225.72" y="495.908" fill="#000" font-size="14" textLength="284.683" font-style="italic">isAuszahlenErlaubt(betrag: long): boolean</text></g><!--class Girokonto--><g class="entity" data-qualified-name="Girokonto" id="ent0004" data-source-line="24"><rect x="108.72" y="563.86" width="310.683" height="97.465" fill="#F1F1F1" style="stroke:#181818;stroke-width:0.5;" rx="2.5" ry="2.5"/><ellipse cx="225.912" cy="579.86" rx="11" ry="11" fill="#ADD1B2" style="stroke:#181818;stroke-width:1;"/><path d="M228.385,586.003 Q227.804,586.302 227.165,586.451 Q226.526,586.601 225.82,586.601 Q223.313,586.601 221.993,584.949 Q220.674,583.297 220.674,580.176 Q220.674,577.047 221.993,575.395 Q223.313,573.743 225.82,573.743 Q226.526,573.743 227.173,573.892 Q227.821,574.042 228.385,574.34 L228.385,577.063 Q227.754,576.482 227.161,576.212 Q226.567,575.943 225.936,575.943 Q224.592,575.943 223.907,577.009 Q223.222,578.076 223.222,580.176 Q223.222,582.268 223.907,583.334 Q224.592,584.401 225.936,584.401 Q226.567,584.401 227.161,584.131 Q227.754,583.861 228.385,583.28 Z " fill="#000"/><text x="246.412" y="585.151" fill="#000" font-size="14" textLength="67.799">Girokonto</text><line x1="109.72" y1="595.86" x2="418.403" y2="595.86" style="stroke:#181818;stroke-width:0.5;"/><g data-visibility-modifier="PRIVATE_FIELD"><rect x="116.72" y="606.604" width="6" height="6" fill="none" style="stroke:#C82930;stroke-width:1;"/></g><text x="128.72" y="613.395" fill="#000" font-size="14" textLength="106.777">dispolimit: long</text><text x="128.72" y="629.883" fill="#000" font-size="14" textLength="153.781">{stand >= -dispolimit}</text><line x1="109.72" y1="636.837" x2="418.403" y2="636.837" style="stroke:#181818;stroke-width:1;"/><g data-visibility-modifier="PROTECTED_METHOD"><polygon points="119.72,645.581,123.72,649.581,119.72,653.581,115.72,649.581" fill="#FF4" style="stroke:#B38D22;stroke-width:1;stroke-linejoin:miter;stroke-miterlimit:10;"/></g><text x="128.72" y="654.372" fill="#000" font-size="14" textLength="284.683">isAuszahlenErlaubt(betrag: long): boolean</text></g><!--class Anlagekonto--><g class="entity" data-qualified-name="Anlagekonto" id="ent0005" data-source-line="31"><rect x="454.72" y="563.86" width="310.683" height="97.465" fill="#F1F1F1" style="stroke:#181818;stroke-width:0.5;" rx="2.5" ry="2.5"/><ellipse cx="562.83" cy="579.86" rx="11" ry="11" fill="#A9DCDF" style="stroke:#181818;stroke-width:1;"/><path d="M562.694,575.208 L561.54,580.28 L563.856,580.28 Z M561.199,572.967 L564.196,572.967 L567.541,585.36 L565.093,585.36 L564.329,582.297 L561.05,582.297 L560.303,585.36 L557.854,585.36 Z " fill="#000"/><text x="583.33" y="585.151" fill="#000" font-size="14" textLength="85.962" font-style="italic">Anlagekonto</text><line x1="455.72" y1="595.86" x2="764.403" y2="595.86" style="stroke:#181818;stroke-width:0.5;"/><text x="460.72" y="613.395" fill="#000" font-size="14" textLength="86.68">{stand >= 0}</text><line x1="455.72" y1="620.348" x2="764.403" y2="620.348" style="stroke:#181818;stroke-width:1;"/><g data-visibility-modifier="PUBLIC_METHOD"><ellipse cx="465.72" cy="634.092" rx="3" ry="3" fill="#84BE84" style="stroke:#038048;stroke-width:1;"/></g><text x="474.72" y="637.883" fill="#000" font-size="14" textLength="142.953" font-style="italic">getZinssatz(): double</text><g data-visibility-modifier="PROTECTED_METHOD"><polygon points="465.72,645.581,469.72,649.581,465.72,653.581,461.72,649.581" fill="#FF4" style="stroke:#B38D22;stroke-width:1;stroke-linejoin:miter;stroke-miterlimit:10;"/></g><text x="474.72" y="654.372" fill="#000" font-size="14" textLength="284.683">isAuszahlenErlaubt(betrag: long): boolean</text></g><!--class Sparkonto--><g class="entity" data-qualified-name="Sparkonto" id="ent0006" data-source-line="38"><rect x="425.44" y="730.57" width="151.234" height="64.488" fill="#F1F1F1" style="stroke:#181818;stroke-width:0.5;" rx="2.5" ry="2.5"/><ellipse cx="462.992" cy="746.57" rx="11" ry="11" fill="#ADD1B2" style="stroke:#181818;stroke-width:1;"/><path d="M465.465,752.713 Q464.884,753.012 464.245,753.161 Q463.606,753.311 462.9,753.311 Q460.394,753.311 459.074,751.659 Q457.754,750.007 457.754,746.886 Q457.754,743.757 459.074,742.105 Q460.394,740.453 462.9,740.453 Q463.606,740.453 464.254,740.602 Q464.901,740.752 465.465,741.05 L465.465,743.773 Q464.835,743.192 464.241,742.922 Q463.648,742.653 463.017,742.653 Q461.672,742.653 460.987,743.719 Q460.302,744.786 460.302,746.886 Q460.302,748.978 460.987,750.044 Q461.672,751.111 463.017,751.111 Q463.648,751.111 464.241,750.841 Q464.835,750.571 465.465,749.99 Z " fill="#000"/><text x="482.004" y="751.861" fill="#000" font-size="14" textLength="69.118">Sparkonto</text><line x1="426.44" y1="762.57" x2="575.674" y2="762.57" style="stroke:#181818;stroke-width:0.5;"/><g data-visibility-modifier="PRIVATE_FIELD"><rect x="433.44" y="773.314" width="6" height="6" fill="none" style="stroke:#C82930;stroke-width:1;"/></g><text x="445.44" y="780.105" fill="#000" font-size="14" textLength="125.234">habenzins: double</text><line x1="426.44" y1="787.058" x2="575.674" y2="787.058" style="stroke:#181818;stroke-width:0.5;"/></g><!--class Festgeldkonto--><g class="entity" data-qualified-name="Festgeldkonto" id="ent0007" data-source-line="42"><rect x="611.97" y="722.32" width="212.177" height="80.977" fill="#F1F1F1" style="stroke:#181818;stroke-width:0.5;" rx="2.5" ry="2.5"/><ellipse cx="665.622" cy="738.32" rx="11" ry="11" fill="#ADD1B2" style="stroke:#181818;stroke-width:1;"/><path d="M668.095,744.463 Q667.514,744.762 666.875,744.911 Q666.236,745.061 665.53,745.061 Q663.023,745.061 661.703,743.409 Q660.384,741.757 660.384,738.636 Q660.384,735.507 661.703,733.855 Q663.023,732.203 665.53,732.203 Q666.236,732.203 666.883,732.352 Q667.531,732.502 668.095,732.8 L668.095,735.523 Q667.464,734.942 666.871,734.672 Q666.277,734.403 665.646,734.403 Q664.302,734.403 663.617,735.469 Q662.932,736.536 662.932,738.636 Q662.932,740.728 663.617,741.794 Q664.302,742.861 665.646,742.861 Q666.277,742.861 666.871,742.591 Q667.464,742.321 668.095,741.74 Z " fill="#000"/><text x="686.122" y="743.611" fill="#000" font-size="14" textLength="96.373">Festgeldkonto</text><line x1="612.97" y1="754.32" x2="823.147" y2="754.32" style="stroke:#181818;stroke-width:0.5;"/><g data-visibility-modifier="PRIVATE_FIELD"><rect x="619.97" y="765.064" width="6" height="6" fill="none" style="stroke:#C82930;stroke-width:1;"/></g><text x="631.97" y="771.855" fill="#000" font-size="14" textLength="77.554">laufzeit: int</text><g data-visibility-modifier="PRIVATE_FIELD"><rect x="619.97" y="781.552" width="6" height="6" fill="none" style="stroke:#C82930;stroke-width:1;"/></g><text x="631.97" y="788.343" fill="#000" font-size="14" textLength="186.177">zinssatz: double {readOnly}</text><line x1="612.97" y1="795.297" x2="823.147" y2="795.297" style="stroke:#181818;stroke-width:0.5;"/></g><!--class Adresse--><g class="entity" data-qualified-name="Adresse" id="ent0008" data-source-line="47"><rect x="7" y="380.66" width="164.12" height="113.953" fill="#F1F1F1" style="stroke:#181818;stroke-width:0.5;" rx="2.5" ry="2.5"/><ellipse cx="57.774" cy="396.66" rx="11" ry="11" fill="#ADD1B2" style="stroke:#181818;stroke-width:1;"/><path d="M60.247,402.803 Q59.666,403.102 59.027,403.251 Q58.388,403.401 57.682,403.401 Q55.175,403.401 53.855,401.749 Q52.536,400.097 52.536,396.976 Q52.536,393.847 53.855,392.195 Q55.175,390.543 57.682,390.543 Q58.388,390.543 59.035,390.692 Q59.683,390.842 60.247,391.14 L60.247,393.863 Q59.616,393.282 59.023,393.012 Q58.429,392.743 57.798,392.743 Q56.454,392.743 55.769,393.809 Q55.084,394.876 55.084,396.976 Q55.084,399.068 55.769,400.134 Q56.454,401.201 57.798,401.201 Q58.429,401.201 59.023,400.931 Q59.616,400.661 60.247,400.08 Z " fill="#000"/><text x="78.274" y="401.951" fill="#000" font-size="14" textLength="54.072">Adresse</text><line x1="8" y1="412.66" x2="170.12" y2="412.66" style="stroke:#181818;stroke-width:0.5;"/><g data-visibility-modifier="PRIVATE_FIELD"><rect x="15" y="423.404" width="6" height="6" fill="none" style="stroke:#C82930;stroke-width:1;"/></g><text x="27" y="430.195" fill="#000" font-size="14" textLength="90.836">straße: String</text><g data-visibility-modifier="PRIVATE_FIELD"><rect x="15" y="439.892" width="6" height="6" fill="none" style="stroke:#C82930;stroke-width:1;"/></g><text x="27" y="446.683" fill="#000" font-size="14" textLength="138.12">hausnummer: String</text><g data-visibility-modifier="PRIVATE_FIELD"><rect x="15" y="456.381" width="6" height="6" fill="none" style="stroke:#C82930;stroke-width:1;"/></g><text x="27" y="463.172" fill="#000" font-size="14" textLength="72.495">PLZ: String</text><g data-visibility-modifier="PRIVATE_FIELD"><rect x="15" y="472.869" width="6" height="6" fill="none" style="stroke:#C82930;stroke-width:1;"/></g><text x="27" y="479.66" fill="#000" font-size="14" textLength="68.394">ort: String</text><line x1="8" y1="486.613" x2="170.12" y2="486.613" style="stroke:#181818;stroke-width:0.5;"/></g><!--link Bank to Kunde--><g class="link" data-entity-1="ent0001" data-entity-2="ent0002" id="lnk9" data-source-line="54" data-link-type="dependency"><path d="M267.67,121.16 C257.93,145.61 248.481,169.335 239.121,192.815" style="stroke:#181818;stroke-width:1;" fill="none" id="Bank-to-Kunde" codeLine="54"/><polygon points="237.27,197.46,244.318,190.581,239.121,192.815,236.887,187.619,237.27,197.46" fill="#181818" style="stroke:#181818;stroke-width:1;stroke-linejoin:miter;stroke-miterlimit:10;"/><text x="255.06" y="164.518" fill="#000" font-size="13" textLength="35.839">kennt</text><text x="256.467" y="141.631" fill="#000" font-size="13">1</text><text x="216.475" y="187.074" fill="#000" font-size="13" textLength="22.712">0..*</text></g><!--link Bank to Konto--><g class="link" data-entity-1="ent0001" data-entity-2="ent0003" id="lnk10" data-source-line="55" data-link-type="dependency"><path d="M300.84,121.42 C313.72,188.84 334.282,296.459 347.802,367.239" style="stroke:#181818;stroke-width:1;" fill="none" id="Bank-to-Konto" codeLine="55"/><polygon points="348.74,372.15,350.98,362.559,347.802,367.239,343.122,364.06,348.74,372.15" fill="#181818" style="stroke:#181818;stroke-width:1;stroke-linejoin:miter;stroke-miterlimit:10;"/><text x="334.78" y="251.748" fill="#000" font-size="13" textLength="35.839">kennt</text><text x="293.636" y="141.515" fill="#000" font-size="13">1</text><text x="324.228" y="361.752" fill="#000" font-size="13" textLength="22.712">0..*</text></g><!--reverse link Kunde to Konto--><g class="link" data-entity-1="ent0002" data-entity-2="ent0003" id="lnk11" data-source-line="56" data-link-type="dependency"><path d="M257.528,299.836 C275.078,323.016 293.34,347.16 312.26,372.15" style="stroke:#181818;stroke-width:1;" fill="none" id="Kunde-backto-Konto" codeLine="56"/><polygon points="254.51,295.85,256.754,305.44,257.528,299.836,263.132,300.611,254.51,295.85" fill="#181818" style="stroke:#181818;stroke-width:1;stroke-linejoin:miter;stroke-miterlimit:10;"/><text x="290.56" y="338.988" fill="#000" font-size="13" textLength="42.986">besitzt</text><text x="250.885" y="316.054" fill="#000" font-size="13">1</text><text x="283.758" y="361.752" fill="#000" font-size="13" textLength="22.712">0..*</text></g><!--link Kunde to Adresse--><g class="link" data-entity-1="ent0002" data-entity-2="ent0008" id="lnk12" data-source-line="57" data-link-type="composition"><path d="M178.405,305.762 C160.865,331.462 148.759,349.191 130.429,376.041" style="stroke:#181818;stroke-width:1;" fill="none" id="Kunde-Adresse" codeLine="57"/><polygon points="185.17,295.85,178.484,298.551,178.405,305.762,185.092,303.061,185.17,295.85" fill="#181818" style="stroke:#181818;stroke-width:1;stroke-linejoin:miter;stroke-miterlimit:10;"/><polygon points="127.61,380.17,135.988,374.992,130.429,376.041,129.381,370.482,127.61,380.17" fill="#181818" style="stroke:#181818;stroke-width:1;stroke-linejoin:miter;stroke-miterlimit:10;"/><text x="162.28" y="338.988" fill="#000" font-size="13" textLength="20.109">hat</text><text x="172.228" y="316.054" fill="#000" font-size="13">1</text><text x="123.834" y="369.839" fill="#000" font-size="13">1</text></g><!--reverse link Konto to Girokonto--><g class="link" data-entity-1="ent0003" data-entity-2="ent0004" id="lnk13" data-source-line="58" data-link-type="extension"><path d="M316.133,518.738 C304.873,538.808 301.47,544.89 290.96,563.63" style="stroke:#181818;stroke-width:1;" fill="none" id="Konto-backto-Girokonto" codeLine="58"/><polygon points="324.94,503.04,310.9,515.802,321.365,521.674,324.94,503.04" fill="none" style="stroke:#181818;stroke-width:1;stroke-linejoin:miter;stroke-miterlimit:10;"/></g><!--reverse link Konto to Anlagekonto--><g class="link" data-entity-1="ent0003" data-entity-2="ent0005" id="lnk14" data-source-line="59" data-link-type="extension"><path d="M468.915,513.557 C497.645,533.507 513.99,544.86 540.81,563.49" style="stroke:#181818;stroke-width:1;" fill="none" id="Konto-backto-Anlagekonto" codeLine="59"/><polygon points="454.13,503.29,465.493,518.485,472.337,508.628,454.13,503.29" fill="none" style="stroke:#181818;stroke-width:1;stroke-linejoin:miter;stroke-miterlimit:10;"/></g><!--reverse link Anlagekonto to Sparkonto--><g class="link" data-entity-1="ent0005" data-entity-2="ent0006" id="lnk15" data-source-line="60" data-link-type="extension"><path d="M564.01,676.214 C547.48,698.704 538.91,710.34 524.26,730.27" style="stroke:#181818;stroke-width:1;" fill="none" id="Anlagekonto-backto-Sparkonto" codeLine="60"/><polygon points="574.67,661.71,559.175,672.66,568.844,679.767,574.67,661.71" fill="none" style="stroke:#181818;stroke-width:1;stroke-linejoin:miter;stroke-miterlimit:10;"/></g><!--reverse link Anlagekonto to Festgeldkonto--><g class="link" data-entity-1="ent0005" data-entity-2="ent0007" id="lnk16" data-source-line="61" data-link-type="extension"><path d="M655.719,676.259 C669.889,695.709 675.45,703.33 688.95,721.86" style="stroke:#181818;stroke-width:1;" fill="none" id="Anlagekonto-backto-Festgeldkonto" codeLine="61"/><polygon points="645.12,661.71,650.87,679.792,660.569,672.725,645.12,661.71" fill="none" style="stroke:#181818;stroke-width:1;stroke-linejoin:miter;stroke-miterlimit:10;"/></g><?plantuml-src dLDDJ-Cm4BtdLrZbqb8LmJK2fAwMNI5M0WbnuJPEXiIgQoFR4Tg4_9RzCVl7rf-fKxWikJHvy_pcpVYrug0r-GPYHuQ2s6Ujkwh5EocCN38AeYIFHZ7Hh4hYmK3QTQB6hU3Oe5Zw3rjsFwjOTzIfxZxYyL0Vj073gf6iKVNODNXhEorNgLSn5aNbZNdDw6mZklqULKcUdcw_HmJsE1too9jiXLIc9DjQeTRef81gew0o96ew7qap7p4WrfgeIy9b0ZPX96IYXvRRUIXQkIPGuhn0MwIVbeRKVIGdJ6yx7KHk58UEclc1ab0fEO8uBE0dKtAN6wwPVfMSxPd9F0xUDBc-okjZRl__UXzjp5uaD9ZRE3GydxN9fbqtQ9wPq1fCxwwsbXtb-0KpmSFZAwZP8bgm2-zjWqbwulv0RHhazOnlsxpqwDR6X0bG7-qb1J8eXFfUyD_ZGIm6AScuyVx-EKfT2vrEwSpnXr_FSy17yn1o_xzRN2pi-gx9ulpix7GH8r-I7GhhyrE67oin0jzHBZUROmf5pKoVaqwza7r9SvMa1Klm1oxVhSGKkHpC8b3aSV35wMu-bcPNKVm3?></g></svg>