<svg xmlns="http://www.w3.org/2000/svg" xmlns:xlink="http://www.w3.org/1999/xlink" version="1.1" data-diagram-type="CLASS" style="width:658px;height:801px;background:#FFFFFF;" width="658px" height="801px" viewBox="0 0 658 801" zoomAndPan="magnify" preserveAspectRatio="none" contentStyleType="text/css"><?plantuml 1.2026.8?><defs/><g font-family="sans-serif" lengthAdjust="spacing"><!--class Bibliothek--><g class="entity" data-qualified-name="Bibliothek" id="ent0001" data-source-line="2"><rect x="206.09" y="7" width="325.578" height="97.465" fill="#F1F1F1" style="stroke:#181818;stroke-width:0.5;" rx="2.5" ry="2.5"/><ellipse cx="330.873" cy="23" rx="11" ry="11" fill="#ADD1B2" style="stroke:#181818;stroke-width:1;"/><path d="M333.346,29.143 Q332.765,29.442 332.126,29.591 Q331.487,29.741 330.781,29.741 Q328.275,29.741 326.955,28.089 Q325.635,26.437 325.635,23.316 Q325.635,20.187 326.955,18.535 Q328.275,16.883 330.781,16.883 Q331.487,16.883 332.134,17.032 Q332.782,17.182 333.346,17.48 L333.346,20.203 Q332.715,19.622 332.122,19.352 Q331.528,19.083 330.898,19.083 Q329.553,19.083 328.868,20.149 Q328.183,21.216 328.183,23.316 Q328.183,25.408 328.868,26.474 Q329.553,27.541 330.898,27.541 Q331.528,27.541 332.122,27.271 Q332.715,27.001 333.346,26.42 Z " fill="#000"/><text x="351.373" y="28.291" fill="#000" font-size="14" textLength="67.512">Bibliothek</text><line x1="207.09" y1="39" x2="530.668" y2="39" style="stroke:#181818;stroke-width:0.5;"/><line x1="207.09" y1="47" x2="530.668" y2="47" style="stroke:#181818;stroke-width:1;"/><g data-visibility-modifier="PUBLIC_METHOD"><ellipse cx="217.09" cy="60.744" rx="3" ry="3" fill="#84BE84" style="stroke:#038048;stroke-width:1;"/></g><text x="226.09" y="64.535" fill="#000" font-size="14" textLength="175.786">anmelden(Leser): Ausweis</text><g data-visibility-modifier="PUBLIC_METHOD"><ellipse cx="217.09" cy="77.232" rx="3" ry="3" fill="#84BE84" style="stroke:#038048;stroke-width:1;"/></g><text x="226.09" y="81.023" fill="#000" font-size="14" textLength="272.583">findeOffeneAusleihe(Exemplar):Ausleihe</text><g data-visibility-modifier="PUBLIC_METHOD"><ellipse cx="217.09" cy="93.721" rx="3" ry="3" fill="#84BE84" style="stroke:#038048;stroke-width:1;"/></g><text x="226.09" y="97.512" fill="#000" font-size="14" textLength="299.578">findeVerfügbareExemplare(Buch):Exemplar[]</text></g><!--class Buch--><g class="entity" data-qualified-name="Buch" id="ent0002" data-source-line="9"><rect x="96.47" y="189.7" width="110.813" height="97.465" fill="#F1F1F1" style="stroke:#181818;stroke-width:0.5;" rx="2.5" ry="2.5"/><ellipse cx="132.266" cy="205.7" rx="11" ry="11" fill="#ADD1B2" style="stroke:#181818;stroke-width:1;"/><path d="M134.739,211.843 Q134.158,212.142 133.519,212.291 Q132.88,212.441 132.174,212.441 Q129.667,212.441 128.347,210.789 Q127.028,209.137 127.028,206.016 Q127.028,202.887 128.347,201.235 Q129.667,199.583 132.174,199.583 Q132.88,199.583 133.527,199.732 Q134.174,199.882 134.739,200.18 L134.739,202.903 Q134.108,202.322 133.515,202.052 Q132.921,201.783 132.29,201.783 Q130.945,201.783 130.261,202.849 Q129.576,203.916 129.576,206.016 Q129.576,208.108 130.261,209.174 Q130.945,210.241 132.29,210.241 Q132.921,210.241 133.515,209.971 Q134.108,209.701 134.739,209.12 Z " fill="#000"/><text x="150.887" y="210.991" fill="#000" font-size="14" textLength="32.601">Buch</text><line x1="97.47" y1="221.7" x2="206.283" y2="221.7" style="stroke:#181818;stroke-width:0.5;"/><g data-visibility-modifier="PRIVATE_FIELD"><rect x="104.47" y="232.444" width="6" height="6" fill="none" style="stroke:#C82930;stroke-width:1;"/></g><text x="116.47" y="239.235" fill="#000" font-size="14" textLength="73.083">isbn:String</text><g data-visibility-modifier="PRIVATE_FIELD"><rect x="104.47" y="248.932" width="6" height="6" fill="none" style="stroke:#C82930;stroke-width:1;"/></g><text x="116.47" y="255.723" fill="#000" font-size="14" textLength="70.766">titel:String</text><g data-visibility-modifier="PRIVATE_FIELD"><rect x="104.47" y="265.421" width="6" height="6" fill="none" style="stroke:#C82930;stroke-width:1;"/></g><text x="116.47" y="272.212" fill="#000" font-size="14" textLength="84.813">autor: String</text><line x1="97.47" y1="279.165" x2="206.283" y2="279.165" style="stroke:#181818;stroke-width:0.5;"/></g><!--class Exemplar--><g class="entity" data-qualified-name="Exemplar" id="ent0003" data-source-line="15"><rect x="58.36" y="372.9" width="187.041" height="64.488" fill="#F1F1F1" style="stroke:#181818;stroke-width:0.5;" rx="2.5" ry="2.5"/><ellipse cx="115.949" cy="388.9" rx="11" ry="11" fill="#ADD1B2" style="stroke:#181818;stroke-width:1;"/><path d="M118.423,395.043 Q117.841,395.342 117.202,395.491 Q116.563,395.641 115.858,395.641 Q113.351,395.641 112.031,393.989 Q110.711,392.337 110.711,389.216 Q110.711,386.087 112.031,384.435 Q113.351,382.783 115.858,382.783 Q116.563,382.783 117.211,382.932 Q117.858,383.082 118.423,383.38 L118.423,386.103 Q117.792,385.522 117.198,385.252 Q116.605,384.983 115.974,384.983 Q114.629,384.983 113.944,386.049 Q113.259,387.116 113.259,389.216 Q113.259,391.308 113.944,392.374 Q114.629,393.441 115.974,393.441 Q116.605,393.441 117.198,393.171 Q117.792,392.901 118.423,392.32 Z " fill="#000"/><text x="136.449" y="394.191" fill="#000" font-size="14" textLength="63.362">Exemplar</text><line x1="59.36" y1="404.9" x2="244.401" y2="404.9" style="stroke:#181818;stroke-width:0.5;"/><g data-visibility-modifier="PRIVATE_FIELD"><rect x="66.36" y="415.644" width="6" height="6" fill="none" style="stroke:#C82930;stroke-width:1;"/></g><text x="78.36" y="422.435" fill="#000" font-size="14" textLength="161.041">inventarnummer: String</text><line x1="59.36" y1="429.388" x2="244.401" y2="429.388" style="stroke:#181818;stroke-width:0.5;"/></g><!--class Regal--><g class="entity" data-qualified-name="Regal" id="ent0004" data-source-line="19"><rect x="117.3" y="539.12" width="69.16" height="48" fill="#F1F1F1" style="stroke:#181818;stroke-width:0.5;" rx="2.5" ry="2.5"/><ellipse cx="132.3" cy="555.12" rx="11" ry="11" fill="#ADD1B2" style="stroke:#181818;stroke-width:1;"/><path d="M134.773,561.263 Q134.192,561.562 133.553,561.711 Q132.914,561.861 132.208,561.861 Q129.701,561.861 128.382,560.209 Q127.062,558.557 127.062,555.436 Q127.062,552.307 128.382,550.655 Q129.701,549.003 132.208,549.003 Q132.914,549.003 133.561,549.152 Q134.209,549.302 134.773,549.6 L134.773,552.323 Q134.142,551.742 133.549,551.472 Q132.955,551.203 132.324,551.203 Q130.98,551.203 130.295,552.269 Q129.61,553.336 129.61,555.436 Q129.61,557.528 130.295,558.594 Q130.98,559.661 132.324,559.661 Q132.955,559.661 133.549,559.391 Q134.142,559.121 134.773,558.54 Z " fill="#000"/><text x="146.3" y="560.411" fill="#000" font-size="14" textLength="37.16">Regal</text><line x1="118.3" y1="571.12" x2="185.46" y2="571.12" style="stroke:#181818;stroke-width:0.5;"/><line x1="118.3" y1="579.12" x2="185.46" y2="579.12" style="stroke:#181818;stroke-width:0.5;"/></g><!--class Leser--><g class="entity" data-qualified-name="Leser" id="ent0005" data-source-line="22"><rect x="505.82" y="530.88" width="112.119" height="64.488" fill="#F1F1F1" style="stroke:#181818;stroke-width:0.5;" rx="2.5" ry="2.5"/><ellipse cx="540.705" cy="546.88" rx="11" ry="11" fill="#ADD1B2" style="stroke:#181818;stroke-width:1;"/><path d="M543.178,553.023 Q542.597,553.322 541.958,553.471 Q541.319,553.621 540.613,553.621 Q538.107,553.621 536.787,551.969 Q535.467,550.317 535.467,547.196 Q535.467,544.067 536.787,542.415 Q538.107,540.763 540.613,540.763 Q541.319,540.763 541.966,540.912 Q542.614,541.062 543.178,541.36 L543.178,544.083 Q542.548,543.502 541.954,543.232 Q541.361,542.963 540.73,542.963 Q539.385,542.963 538.7,544.029 Q538.015,545.096 538.015,547.196 Q538.015,549.288 538.7,550.354 Q539.385,551.421 540.73,551.421 Q541.361,551.421 541.954,551.151 Q542.548,550.881 543.178,550.3 Z " fill="#000"/><text x="559.124" y="552.171" fill="#000" font-size="14" textLength="35.93">Leser</text><line x1="506.82" y1="562.88" x2="616.939" y2="562.88" style="stroke:#181818;stroke-width:0.5;"/><g data-visibility-modifier="PRIVATE_FIELD"><rect x="513.82" y="573.624" width="6" height="6" fill="none" style="stroke:#C82930;stroke-width:1;"/></g><text x="525.82" y="580.415" fill="#000" font-size="14" textLength="86.119">name: String</text><line x1="506.82" y1="587.368" x2="616.939" y2="587.368" style="stroke:#181818;stroke-width:0.5;"/></g><!--class Adresse--><g class="entity" data-qualified-name="Adresse" id="ent0006" data-source-line="26"><rect x="479.82" y="672.37" width="164.12" height="113.953" fill="#F1F1F1" style="stroke:#181818;stroke-width:0.5;" rx="2.5" ry="2.5"/><ellipse cx="530.594" cy="688.37" rx="11" ry="11" fill="#ADD1B2" style="stroke:#181818;stroke-width:1;"/><path d="M533.067,694.513 Q532.486,694.812 531.847,694.961 Q531.208,695.111 530.502,695.111 Q527.995,695.111 526.675,693.459 Q525.356,691.807 525.356,688.686 Q525.356,685.557 526.675,683.905 Q527.995,682.253 530.502,682.253 Q531.208,682.253 531.855,682.402 Q532.503,682.552 533.067,682.85 L533.067,685.573 Q532.436,684.992 531.843,684.722 Q531.249,684.453 530.618,684.453 Q529.274,684.453 528.589,685.519 Q527.904,686.586 527.904,688.686 Q527.904,690.778 528.589,691.844 Q529.274,692.911 530.618,692.911 Q531.249,692.911 531.843,692.641 Q532.436,692.371 533.067,691.79 Z " fill="#000"/><text x="551.094" y="693.661" fill="#000" font-size="14" textLength="54.072">Adresse</text><line x1="480.82" y1="704.37" x2="642.94" y2="704.37" style="stroke:#181818;stroke-width:0.5;"/><g data-visibility-modifier="PRIVATE_FIELD"><rect x="487.82" y="715.114" width="6" height="6" fill="none" style="stroke:#C82930;stroke-width:1;"/></g><text x="499.82" y="721.905" fill="#000" font-size="14" textLength="90.836">straße: String</text><g data-visibility-modifier="PRIVATE_FIELD"><rect x="487.82" y="731.602" width="6" height="6" fill="none" style="stroke:#C82930;stroke-width:1;"/></g><text x="499.82" y="738.393" fill="#000" font-size="14" textLength="138.12">hausnummer: String</text><g data-visibility-modifier="PRIVATE_FIELD"><rect x="487.82" y="748.091" width="6" height="6" fill="none" style="stroke:#C82930;stroke-width:1;"/></g><text x="499.82" y="754.882" fill="#000" font-size="14" textLength="72.495">PLZ: String</text><g data-visibility-modifier="PRIVATE_FIELD"><rect x="487.82" y="764.579" width="6" height="6" fill="none" style="stroke:#C82930;stroke-width:1;"/></g><text x="499.82" y="771.37" fill="#000" font-size="14" textLength="68.394">ort: String</text><line x1="480.82" y1="778.323" x2="642.94" y2="778.323" style="stroke:#181818;stroke-width:0.5;"/></g><!--class Ausweis--><g class="entity" data-qualified-name="Ausweis" id="ent0007" data-source-line="33"><rect x="495.94" y="364.66" width="131.875" height="80.977" fill="#F1F1F1" style="stroke:#181818;stroke-width:0.5;" rx="2.5" ry="2.5"/><ellipse cx="531.019" cy="380.66" rx="11" ry="11" fill="#ADD1B2" style="stroke:#181818;stroke-width:1;"/><path d="M533.492,386.803 Q532.911,387.102 532.272,387.251 Q531.633,387.401 530.927,387.401 Q528.42,387.401 527.101,385.749 Q525.781,384.097 525.781,380.976 Q525.781,377.847 527.101,376.195 Q528.42,374.543 530.927,374.543 Q531.633,374.543 532.28,374.692 Q532.928,374.842 533.492,375.14 L533.492,377.863 Q532.861,377.282 532.268,377.012 Q531.674,376.743 531.043,376.743 Q529.699,376.743 529.014,377.809 Q528.329,378.876 528.329,380.976 Q528.329,383.068 529.014,384.134 Q529.699,385.201 531.043,385.201 Q531.674,385.201 532.268,384.931 Q532.861,384.661 533.492,384.08 Z " fill="#000"/><text x="549.481" y="385.951" fill="#000" font-size="14" textLength="55.255">Ausweis</text><line x1="496.94" y1="396.66" x2="626.815" y2="396.66" style="stroke:#181818;stroke-width:0.5;"/><g data-visibility-modifier="PRIVATE_FIELD"><rect x="503.94" y="407.404" width="6" height="6" fill="none" style="stroke:#C82930;stroke-width:1;"/></g><text x="515.94" y="414.195" fill="#000" font-size="14" textLength="105.875">nummer: String</text><g data-visibility-modifier="PRIVATE_FIELD"><rect x="503.94" y="423.892" width="6" height="6" fill="none" style="stroke:#C82930;stroke-width:1;"/></g><text x="515.94" y="430.683" fill="#000" font-size="14" textLength="102.614">gültig: boolean</text><line x1="496.94" y1="437.637" x2="626.815" y2="437.637" style="stroke:#181818;stroke-width:0.5;"/></g><!--class Ausleihe--><g class="entity" data-qualified-name="Ausleihe" id="ent0008" data-source-line="38"><rect x="241.97" y="181.46" width="253.821" height="113.953" fill="#F1F1F1" style="stroke:#181818;stroke-width:0.5;" rx="2.5" ry="2.5"/><ellipse cx="335.698" cy="197.46" rx="11" ry="11" fill="#ADD1B2" style="stroke:#181818;stroke-width:1;"/><path d="M338.171,203.603 Q337.59,203.902 336.95,204.051 Q336.311,204.201 335.606,204.201 Q333.099,204.201 331.779,202.549 Q330.459,200.897 330.459,197.776 Q330.459,194.647 331.779,192.995 Q333.099,191.343 335.606,191.343 Q336.311,191.343 336.959,191.492 Q337.606,191.642 338.171,191.94 L338.171,194.663 Q337.54,194.082 336.946,193.812 Q336.353,193.543 335.722,193.543 Q334.377,193.543 333.692,194.609 Q333.008,195.676 333.008,197.776 Q333.008,199.868 333.692,200.934 Q334.377,202.001 335.722,202.001 Q336.353,202.001 336.946,201.731 Q337.54,201.461 338.171,200.88 Z " fill="#000"/><text x="356.198" y="202.751" fill="#000" font-size="14" textLength="57.866">Ausleihe</text><line x1="242.97" y1="213.46" x2="494.791" y2="213.46" style="stroke:#181818;stroke-width:0.5;"/><g data-visibility-modifier="PRIVATE_FIELD"><rect x="249.97" y="224.204" width="6" height="6" fill="none" style="stroke:#C82930;stroke-width:1;"/></g><text x="261.97" y="230.995" fill="#000" font-size="14" textLength="205.775">rückgabeErfolgtAm: LocalDate</text><line x1="242.97" y1="237.948" x2="494.791" y2="237.948" style="stroke:#181818;stroke-width:1;"/><g data-visibility-modifier="PUBLIC_METHOD"><ellipse cx="252.97" cy="251.692" rx="3" ry="3" fill="#84BE84" style="stroke:#038048;stroke-width:1;"/></g><text x="261.97" y="255.483" fill="#000" font-size="14" textLength="116.655">isOffen():boolean</text><g data-visibility-modifier="PUBLIC_METHOD"><ellipse cx="252.97" cy="268.181" rx="3" ry="3" fill="#84BE84" style="stroke:#038048;stroke-width:1;"/></g><text x="261.97" y="271.972" fill="#000" font-size="14" textLength="227.821">verlängern(Dauer):Ausleihperiode</text><g data-visibility-modifier="PUBLIC_METHOD"><ellipse cx="252.97" cy="284.669" rx="3" ry="3" fill="#84BE84" style="stroke:#038048;stroke-width:1;"/></g><text x="261.97" y="288.46" fill="#000" font-size="14" textLength="97.419">zurückgeben()</text></g><!--class Ausleihperiode--><g class="entity" data-qualified-name="Ausleihperiode" id="ent0009" data-source-line="46"><rect x="280.95" y="356.41" width="175.857" height="97.465" fill="#F1F1F1" style="stroke:#181818;stroke-width:0.5;" rx="2.5" ry="2.5"/><ellipse cx="314.937" cy="372.41" rx="11" ry="11" fill="#ADD1B2" style="stroke:#181818;stroke-width:1;"/><path d="M317.41,378.553 Q316.829,378.852 316.19,379.001 Q315.551,379.151 314.845,379.151 Q312.338,379.151 311.019,377.499 Q309.699,375.847 309.699,372.726 Q309.699,369.597 311.019,367.945 Q312.338,366.293 314.845,366.293 Q315.551,366.293 316.198,366.442 Q316.846,366.592 317.41,366.89 L317.41,369.613 Q316.779,369.032 316.186,368.762 Q315.592,368.493 314.961,368.493 Q313.617,368.493 312.932,369.559 Q312.247,370.626 312.247,372.726 Q312.247,374.818 312.932,375.884 Q313.617,376.951 314.961,376.951 Q315.592,376.951 316.186,376.681 Q316.779,376.411 317.41,375.83 Z " fill="#000"/><text x="333.156" y="377.701" fill="#000" font-size="14" textLength="101.664">Ausleihperiode</text><line x1="281.95" y1="388.41" x2="455.807" y2="388.41" style="stroke:#181818;stroke-width:0.5;"/><g data-visibility-modifier="PRIVATE_FIELD"><rect x="288.95" y="399.154" width="6" height="6" fill="none" style="stroke:#C82930;stroke-width:1;"/></g><text x="300.95" y="405.945" fill="#000" font-size="14" textLength="144.888">erstelltAm: LocalDate</text><g data-visibility-modifier="PRIVATE_FIELD"><rect x="288.95" y="415.642" width="6" height="6" fill="none" style="stroke:#C82930;stroke-width:1;"/></g><text x="300.95" y="422.433" fill="#000" font-size="14" textLength="149.857">beginntAm: LocalDate</text><g data-visibility-modifier="PRIVATE_FIELD"><rect x="288.95" y="432.131" width="6" height="6" fill="none" style="stroke:#C82930;stroke-width:1;"/></g><text x="300.95" y="438.922" fill="#000" font-size="14" textLength="136.192">endetAm: LocalDate</text><line x1="281.95" y1="445.875" x2="455.807" y2="445.875" style="stroke:#181818;stroke-width:0.5;"/></g><!--link Bibliothek to Exemplar--><g class="link" data-entity-1="ent0001" data-entity-2="ent0003" id="lnk10" data-source-line="52" data-link-type="dependency"><path d="M205.63,77.35 C141.43,94.35 73.87,125.27 34.88,181.46 C6,223.07 14.64,248.99 34.88,295.41 C48.67,327.06 72.726,350.632 97.906,369.592" style="stroke:#181818;stroke-width:1;" fill="none" id="Bibliothek-to-Exemplar" codeLine="52"/><polygon points="101.9,372.6,97.116,363.991,97.906,369.592,92.304,370.382,101.9,372.6" fill="#181818" style="stroke:#181818;stroke-width:1;stroke-linejoin:miter;stroke-miterlimit:10;"/><text x="35.88" y="243.508" fill="#000" font-size="13" textLength="42.986">besitzt</text><text x="190.057" y="75.565" fill="#000" font-size="13">1</text><text x="85" y="361.941" fill="#000" font-size="13">*</text></g><!--link Bibliothek to Ausleihe--><g class="link" data-entity-1="ent0001" data-entity-2="ent0008" id="lnk11" data-source-line="53" data-link-type="dependency"><path d="M368.88,104.68 C368.88,128.21 368.88,151.69 368.88,176.24" style="stroke:#181818;stroke-width:1;" fill="none" id="Bibliothek-to-Ausleihe" codeLine="53"/><polygon points="368.88,181.24,372.88,172.24,368.88,176.24,364.88,172.24,368.88,181.24" fill="#181818" style="stroke:#181818;stroke-width:1;stroke-linejoin:miter;stroke-miterlimit:10;"/><text x="369.88" y="148.028" fill="#000" font-size="13" textLength="57.211">verwaltet</text><text x="360.333" y="125.208" fill="#000" font-size="13">1</text><text x="345.516" y="170.539" fill="#000" font-size="13" textLength="22.712">0..*</text></g><!--link Bibliothek to Ausweis--><g class="link" data-entity-1="ent0001" data-entity-2="ent0007" id="lnk12" data-source-line="54" data-link-type="dependency"><path d="M441.91,104.87 C467.96,125.52 495.2,151.76 512.88,181.46 C547.09,238.95 557.147,312.591 560.267,359.401" style="stroke:#181818;stroke-width:1;" fill="none" id="Bibliothek-to-Ausweis" codeLine="54"/><polygon points="560.6,364.39,563.993,355.144,560.267,359.401,556.01,355.676,560.6,364.39" fill="#181818" style="stroke:#181818;stroke-width:1;stroke-linejoin:miter;stroke-miterlimit:10;"/><text x="552.92" y="243.508" fill="#000" font-size="13" textLength="46.979">verleiht</text><text x="443.201" y="125.07" fill="#000" font-size="13">1</text><text x="536.625" y="353.991" fill="#000" font-size="13" textLength="22.712">0..*</text></g><!--reverse link Buch to Exemplar--><g class="link" data-entity-1="ent0002" data-entity-2="ent0003" id="lnk13" data-source-line="55" data-link-type="dependency"><path d="M151.88,292.52 C151.88,319.87 151.88,348.35 151.88,372.41" style="stroke:#181818;stroke-width:1;" fill="none" id="Buch-backto-Exemplar" codeLine="55"/><polygon points="151.88,287.52,147.88,296.52,151.88,292.52,155.88,296.52,151.88,287.52" fill="#181818" style="stroke:#181818;stroke-width:1;stroke-linejoin:miter;stroke-miterlimit:10;"/><text x="143.358" y="307.713" fill="#000" font-size="13">1</text><text x="127.784" y="362.088" fill="#000" font-size="13" textLength="22.712">0..*</text></g><!--link Exemplar to Regal--><g class="link" data-entity-1="ent0003" data-entity-2="ent0004" id="lnk14" data-source-line="56" data-link-type="dependency"><path d="M151.88,437.71 C151.88,467.62 151.88,506.85 151.88,533.73" style="stroke:#181818;stroke-width:1;" fill="none" id="Exemplar-to-Regal" codeLine="56"/><polygon points="151.88,538.73,155.88,529.73,151.88,533.73,147.88,529.73,151.88,538.73" fill="#181818" style="stroke:#181818;stroke-width:1;stroke-linejoin:miter;stroke-miterlimit:10;"/><text x="152.88" y="497.448" fill="#000" font-size="13" textLength="47.601">steht in</text><text x="145.333" y="457.946" fill="#000" font-size="13">*</text><text x="125.036" y="528.563" fill="#000" font-size="13" textLength="24.667">0..1</text></g><!--link Leser to Adresse--><g class="link" data-entity-1="ent0005" data-entity-2="ent0006" id="lnk15" data-source-line="57" data-link-type="composition"><path d="M561.88,607.79 C561.88,629.41 561.88,641.65 561.88,667.17" style="stroke:#181818;stroke-width:1;" fill="none" id="Leser-Adresse" codeLine="57"/><polygon points="561.88,595.79,557.88,601.79,561.88,607.79,565.88,601.79,561.88,595.79" fill="#181818" style="stroke:#181818;stroke-width:1;stroke-linejoin:miter;stroke-miterlimit:10;"/><polygon points="561.88,672.17,565.88,663.17,561.88,667.17,557.88,663.17,561.88,672.17" fill="#181818" style="stroke:#181818;stroke-width:1;stroke-linejoin:miter;stroke-miterlimit:10;"/><text x="562.88" y="638.938" fill="#000" font-size="13" textLength="39">wohnt</text><text x="553.382" y="661.472" fill="#000" font-size="13">1</text></g><!--link Ausweis to Leser--><g class="link" data-entity-1="ent0007" data-entity-2="ent0005" id="lnk16" data-source-line="58" data-link-type="dependency"><path d="M561.88,445.91 C561.88,472.17 561.88,501.12 561.88,525.54" style="stroke:#181818;stroke-width:1;" fill="none" id="Ausweis-to-Leser" codeLine="58"/><polygon points="561.88,530.54,565.88,521.54,561.88,525.54,557.88,521.54,561.88,530.54" fill="#181818" style="stroke:#181818;stroke-width:1;stroke-linejoin:miter;stroke-miterlimit:10;"/><text x="555.423" y="466.195" fill="#000" font-size="13">*</text><text x="553.114" y="520.247" fill="#000" font-size="13">1</text></g><!--link Ausleihe to Ausweis--><g class="link" data-entity-1="ent0008" data-entity-2="ent0007" id="lnk17" data-source-line="59" data-link-type="dependency"><path d="M435.03,295.89 C461.43,318.43 487.417,340.594 511.477,361.134" style="stroke:#181818;stroke-width:1;" fill="none" id="Ausleihe-to-Ausweis" codeLine="59"/><polygon points="515.28,364.38,511.032,355.494,511.477,361.134,505.838,361.579,515.28,364.38" fill="#181818" style="stroke:#181818;stroke-width:1;stroke-linejoin:miter;stroke-miterlimit:10;"/><text x="436.347" y="315.987" fill="#000" font-size="13">*</text><text x="498.918" y="353.98" fill="#000" font-size="13">1</text></g><!--link Ausleihe to Exemplar--><g class="link" data-entity-1="ent0008" data-entity-2="ent0003" id="lnk18" data-source-line="60" data-link-type="dependency"><path d="M294.5,295.89 C260.76,321.5 226.103,347.807 197.563,369.467" style="stroke:#181818;stroke-width:1;" fill="none" id="Ausleihe-to-Exemplar" codeLine="60"/><polygon points="193.58,372.49,203.167,370.235,197.563,369.467,198.331,363.863,193.58,372.49" fill="#181818" style="stroke:#181818;stroke-width:1;stroke-linejoin:miter;stroke-miterlimit:10;"/><text x="279.568" y="315.987" fill="#000" font-size="13">*</text><text x="193.024" y="362.184" fill="#000" font-size="13">1</text></g><!--link Ausleihe to Ausleihperiode--><g class="link" data-entity-1="ent0008" data-entity-2="ent0009" id="lnk19" data-source-line="61" data-link-type="composition"><path d="M368.88,307.66 C368.88,327.32 368.88,332.2 368.88,351.14" style="stroke:#181818;stroke-width:1;" fill="none" id="Ausleihe-Ausleihperiode" codeLine="61"/><polygon points="368.88,295.66,364.88,301.66,368.88,307.66,372.88,301.66,368.88,295.66" fill="#181818" style="stroke:#181818;stroke-width:1;stroke-linejoin:miter;stroke-miterlimit:10;"/><polygon points="368.88,356.14,372.88,347.14,368.88,351.14,364.88,347.14,368.88,356.14" fill="#181818" style="stroke:#181818;stroke-width:1;stroke-linejoin:miter;stroke-miterlimit:10;"/><text x="345.383" y="345.785" fill="#000" font-size="13" textLength="22.712">1..*</text></g><?plantuml-src XPFFQjmm4CRlVWgn9s-AGtiLfR0XkIsq9D13Gm-ozxCj8aj1ahCbfS-IInzZRtwnoh97-oU6-cH_yvkPJvfnfOHpx4QMIXhVuedzpbXuYl34bmzCw0vg1vrluM3Nd6rwjuTqSxYMUeUlTGsD452GBVAxN-YUbGWmIQVmTzXwE3Ibi20G-KrVjMjEtuy_ipzPLatUGeHSILTg_k2jrCqaUEcXpXJHUsCvcwLKXIgdIle5sWkh-wx30d-FHgW09o6UdhArwF0-PxEpS0u4EM_5y7RaejYAtbtqZFgtxOzpmLY_q66w-cHZeL0p79IN3MUbCGf2doN7ML2s7GxLKoDAtDdQgCPlEiwsfXBgLdZG5io3aowEE5zpAZlfBx1g-AiRM9tVYXx7aJ_3IhEZmR_sKpUKOv5tdcQOdC6wC5QrvAX48xLUYY2ireKUsfnizkhJgYY-iDNLwhWDuPhWf7_r5o2BvCVhwm2dU-FZSVT2UVm7ZpEAz9WOu765H-npKH165hBaPJH6TG8xRI1duIfQpwJEfWsyYaY8qxPnjZUjzXdrJMK24rEoT83J4Ft5Yy5aBaNdjgSNGXF-1m00?></g></svg>